<?xml version="1.0" encoding="UTF-8"?>
<svg width="17px" height="17px" viewBox="0 0 17 17" version="1.1" xmlns="http://www.w3.org/2000/svg" xmlns:xlink="http://www.w3.org/1999/xlink">
    <title>Social-icon/Twitter</title>
    <defs>
        <filter id="filter-1">
            <feColorMatrix in="SourceGraphic" type="matrix" values="0 0 0 0 1.000000 0 0 0 0 1.000000 0 0 0 0 1.000000 0 0 0 1.000000 0"></feColorMatrix>
        </filter>
        <polygon id="path-2" points="0 7.03448276e-05 16.8827586 7.03448276e-05 16.8827586 13.7200552 0 13.7200552"></polygon>
    </defs>
    <g id="Social-icon/Twitter" stroke="none" stroke-width="1" fill="none" fill-rule="evenodd">
        <g filter="url(#filter-1)" id="Group-3">
            <g transform="translate(0.000000, 1.465517)">
                <mask id="mask-3" fill="white">
                    <use xlink:href="#path-2"></use>
                </mask>
                <g id="Clip-2"></g>
                <path d="M16.8827586,1.62433241 C16.2616138,1.90008414 15.5940414,2.08579448 14.8934069,2.16950483 C15.6088138,1.74110483 16.1582069,1.06227724 16.4163724,0.253311724 C15.7473931,0.650056552 15.0059586,0.938470345 14.2166897,1.09393241 C13.5856966,0.420732414 12.6845793,7.03448276e-05 11.6884966,7.03448276e-05 C9.45223448,7.03448276e-05 7.80897931,2.08649793 8.31405517,4.25241517 C5.43624828,4.10820828 2.88413793,2.72944966 1.17546207,0.633877241 C0.268013793,2.19060828 0.704855172,4.22709103 2.24681379,5.25834621 C1.67983448,5.24005655 1.14521379,5.08459448 0.678827586,4.82502207 C0.640841379,6.42958759 1.79097931,7.93074621 3.45674483,8.26488414 C2.96925517,8.39642897 2.43533793,8.42738069 1.89227586,8.32397379 C2.33263448,9.69991862 3.61150345,10.7009255 5.12813793,10.7290634 C3.672,11.87076 1.8374069,12.38076 0,12.1640979 C1.53281379,13.1461117 3.35404138,13.7201255 5.30962759,13.7201255 C11.7405517,13.7201255 15.3738621,8.28880138 15.1543862,3.41742207 C15.8311034,2.92852552 16.4184828,2.31863586 16.8827586,1.62433241" id="Fill-1" fill="#000000" mask="url(#mask-3)"></path>
            </g>
        </g>
    </g>
</svg>