<?xml version="1.0" encoding="UTF-8"?>
<svg width="25px" height="25px" viewBox="0 0 25 25" version="1.1" xmlns="http://www.w3.org/2000/svg" xmlns:xlink="http://www.w3.org/1999/xlink">
    <title>Card icon / 1</title>
    <g id="Card-icon-/-1" stroke="none" stroke-width="1" fill="none" fill-rule="evenodd">
        <g id="noun_drop_1723759" transform="translate(2.205882, 0.000000)" fill="#FFFFFF" fill-rule="nonzero">
            <path d="M18.6149691,14.6876206 C18.6149691,15.1065779 18.5848283,15.5255353 18.5305748,15.9444927 C18.5426312,15.8631125 18.5516734,15.7847463 18.5637297,15.7033661 C18.4522087,16.51114 18.2382089,17.2978154 17.9247444,18.0513358 C17.9548852,17.9789979 17.985026,17.9066599 18.0151669,17.834322 C17.834322,18.2623216 17.6233362,18.6782649 17.3791956,19.0731096 C17.2556182,19.275053 17.1229986,19.4739824 16.9843509,19.6668837 C16.9542101,19.7090808 16.9210552,19.751278 16.8909144,19.7934751 C16.8758439,19.8145737 16.8577595,19.8356723 16.842689,19.8567708 C16.7613088,19.9652778 16.9120129,19.7633343 16.9120129,19.7663484 C16.8999566,19.8055314 16.839675,19.8567708 16.8125482,19.8899257 C16.7703511,19.9411651 16.7281539,19.9924045 16.6859568,20.0436439 C16.3875627,20.3962915 16.0650559,20.7248264 15.7214506,21.0292486 C15.6340422,21.1076148 15.5436198,21.1829668 15.4501833,21.2583189 C15.4079861,21.2914738 15.368803,21.3246287 15.3266059,21.3577836 C15.2783806,21.3969666 15.1939863,21.4542342 15.4170284,21.2884597 C15.3838735,21.3125723 15.3537326,21.336685 15.3235918,21.3607976 C15.1427469,21.4964313 14.9588879,21.6230228 14.7720149,21.743586 C14.3259307,22.0299238 13.8527199,22.2770785 13.3644387,22.4850502 C13.4367766,22.4549093 13.5091146,22.4247685 13.5814525,22.3946277 C12.8309462,22.7080922 12.0412568,22.922092 11.2334828,23.033613 C11.314863,23.0215567 11.3932292,23.0125145 11.4746094,23.0004581 C10.6427228,23.1119792 9.79576582,23.1119792 8.96387924,23.0004581 C9.04525945,23.0125145 9.12362558,23.0215567 9.20500579,23.033613 C8.39723187,22.922092 7.61055652,22.7080922 6.85703607,22.3946277 C6.92937404,22.4247685 7.001712,22.4549093 7.07404996,22.4850502 C6.64605035,22.3042052 6.23010706,22.0932195 5.83526235,21.8490789 C5.63331887,21.7255015 5.43438947,21.5928819 5.24148823,21.4542342 C5.19929109,21.4240934 5.15709394,21.3909385 5.1148968,21.3607976 C5.09379823,21.3457272 5.07269965,21.3276427 5.05160108,21.3125723 C4.94309414,21.2311921 5.14503762,21.3818962 5.14202353,21.3818962 C5.10284047,21.3698399 5.05160108,21.3095583 5.01844618,21.2824315 C4.96720679,21.2402344 4.9159674,21.1980372 4.86472801,21.1558401 C4.51208044,20.857446 4.18354552,20.5349392 3.87912326,20.1913339 C3.80075714,20.1039255 3.72540509,20.0135031 3.65005305,19.9200666 C3.61689815,19.8778694 3.58374325,19.8386863 3.55058835,19.7964892 C3.51140529,19.7482639 3.45413773,19.6638696 3.61991223,19.8869117 C3.59579958,19.8537568 3.57168692,19.8236159 3.54757427,19.7934751 C3.41194059,19.6126302 3.28534915,19.4287712 3.16478588,19.2418981 C2.87844811,18.795814 2.6312934,18.3226032 2.42332176,17.834322 C2.45346258,17.9066599 2.4836034,17.9789979 2.51374421,18.0513358 C2.20027971,17.3008295 1.9862799,16.51114 1.87475887,15.7033661 C1.8868152,15.7847463 1.89585745,15.8631125 1.90791377,15.9444927 C1.79639275,15.1065779 1.79639275,14.2566069 1.91092785,13.415678 C1.89887153,13.4970583 1.88982928,13.5754244 1.87777296,13.6568046 C1.98929398,12.8550588 2.20329379,12.0713976 2.51374421,11.3269194 C2.4836034,11.3992573 2.45346258,11.4715953 2.42332176,11.5439333 C2.70061728,10.8898775 3.04723669,10.2689767 3.46619406,9.69328704 C3.5083912,9.6330054 3.72239101,9.36475212 3.52647569,9.60587867 C3.57771508,9.54258295 3.62594039,9.47928723 3.67717978,9.41900559 C3.72841917,9.35570988 3.78267265,9.29241416 3.83391204,9.22911844 C3.94844715,9.09047068 4.06599633,8.954837 4.18354552,8.81920332 C4.79540413,8.11390818 5.41931906,7.41765529 6.04926215,6.72743056 C7.3483314,5.30176987 8.66247106,3.88816551 9.98263889,2.48058931 C10.2750048,2.17013889 10.5673708,1.85667438 10.8597367,1.54622396 C10.4347512,1.54622396 10.0067515,1.54622396 9.58176601,1.54622396 C10.3985822,2.41427951 11.2123843,3.28534915 12.0261863,4.15943287 C13.3885513,5.6272907 14.7509163,7.09514853 16.06807,8.60218943 C16.3544078,8.93072434 16.6286892,9.27131559 16.9120129,9.60286458 C16.7160976,9.37078029 16.9270833,9.62396316 16.9722946,9.69027296 C17.0325762,9.77466725 17.0928578,9.85906154 17.1531395,9.94646991 C17.2646605,10.1122444 17.3731674,10.2840471 17.4726321,10.4558497 C17.6775897,10.8054832 17.8554205,11.167173 18.0151669,11.5409192 C17.985026,11.4685812 17.9548852,11.3962432 17.9247444,11.3239053 C18.2351948,12.0713976 18.4491946,12.8520448 18.5607157,13.6537905 C18.5486593,13.5724103 18.5396171,13.4940442 18.5275608,13.412664 C18.5848283,13.8376495 18.6149691,14.262635 18.6149691,14.6876206 C18.6149691,15.1608314 19.0309124,15.6129437 19.5191937,15.5918451 C20.0074749,15.5707465 20.4234182,15.1939863 20.4234182,14.6876206 C20.41739,12.8490307 19.9230806,11.0164689 18.9736449,9.44010417 C18.3617863,8.42134452 17.541956,7.53520448 16.7522666,6.65207851 C15.9505208,5.75086806 15.1337047,4.86171393 14.3168885,3.97557388 C13.560354,3.15574363 12.8008054,2.33892747 12.0382427,1.52512539 C11.6524402,1.11219618 11.2726659,0.687210648 10.8748071,0.28633777 C10.8687789,0.280309606 10.8627508,0.274281443 10.8567226,0.268253279 C10.5281877,-0.0783661265 9.90728684,-0.0783661265 9.57875193,0.268253279 C9.13869599,0.732421875 8.70466821,1.19960455 8.26762635,1.66377315 C7.32120467,2.67349055 6.38081115,3.68622203 5.44644579,4.70799576 C4.54523534,5.69058642 3.64402488,6.67317708 2.77898341,7.68590856 C2.23946277,8.31585166 1.72405478,8.96689333 1.32016782,9.69027296 C0.795717593,10.6246383 0.409915123,11.6524402 0.210985725,12.7043547 C-0.15070409,14.6062404 -0.00602816358,16.6166329 0.726393711,18.4190538 C1.38949171,20.0526861 2.42633584,21.5265721 3.81582755,22.626712 C5.21737558,23.73288 6.8690924,24.5105131 8.64438657,24.7667101 C10.4739342,25.0289352 12.3517072,24.8541184 14.0637056,24.1397811 C15.6882957,23.4616127 17.135055,22.4096981 18.2201244,21.0171923 C18.7686873,20.3149113 19.2328559,19.567419 19.5794753,18.7475887 C19.9652778,17.8403501 20.2154466,16.9210552 20.342038,15.9444927 C20.3962915,15.5285494 20.4264323,15.109592 20.4264323,14.6876206 C20.4264323,14.2144097 20.010489,13.7622975 19.5222078,13.783396 C19.0278983,13.8044946 18.6179832,14.1812548 18.6149691,14.6876206 Z" id="Path"></path>
            <path d="M10.2177373,18.8922647 C9.97962481,18.8922647 9.74151235,18.8741802 9.50641397,18.8440394 C9.58779417,18.8560957 9.6661603,18.8651379 9.74754051,18.8771943 C9.28940008,18.8138985 8.84633005,18.6903212 8.41833044,18.5124904 C8.4906684,18.5426312 8.56300637,18.572772 8.63534433,18.6029128 C8.33092207,18.4733073 8.03855613,18.313561 7.76427469,18.129702 C7.69796489,18.0844907 7.63466917,18.0392795 7.57137346,17.9940683 C7.51711998,17.9518711 7.40559896,17.8493924 7.62864101,18.0392795 C7.59850019,18.0151669 7.56835937,17.9910542 7.53520448,17.9639275 C7.40861304,17.8584346 7.28804977,17.7469136 7.17050058,17.6323785 C7.05295139,17.5148293 6.94444444,17.394266 6.83895158,17.2676746 C6.82086709,17.246576 6.76661362,17.1983507 6.76359954,17.174238 C6.76359954,17.210407 6.91430363,17.3761815 6.80881076,17.2315056 C6.76058546,17.1682099 6.71537423,17.1019001 6.67317708,17.0386044 C6.48630401,16.7643229 6.32957176,16.471957 6.19996624,16.1675347 C6.23010706,16.2398727 6.26024788,16.3122106 6.2903887,16.3845486 C6.11255787,15.9595631 5.98898052,15.513479 5.9256848,15.0553385 C5.93774113,15.1367187 5.94678337,15.2150849 5.9588397,15.2964651 C5.92869888,15.0613667 5.91061439,14.8232542 5.91061439,14.5851418 C5.90760031,14.1119309 5.4946711,13.6598187 5.00638985,13.6809172 C4.5181086,13.7020158 4.09915123,14.078776 4.10214915,14.5851418 C4.10819348,15.8209153 4.47892554,17.0747733 5.20531925,18.0814767 C5.95582562,19.124349 6.95951485,19.898968 8.16816165,20.3450521 C8.81920332,20.5861786 9.53052662,20.7007299 10.2237654,20.7007299 C10.6969763,20.7037278 11.1490885,20.2847704 11.12799,19.7964892 C11.1008632,19.3051939 10.724103,18.8952787 10.2177373,18.8922647 L10.2177373,18.8922647 Z" id="Path"></path>
        </g>
    </g>
</svg>