<?xml version="1.0" encoding="UTF-8"?>
<svg width="17px" height="17px" viewBox="0 0 17 17" version="1.1" xmlns="http://www.w3.org/2000/svg" xmlns:xlink="http://www.w3.org/1999/xlink">
    <title>Social-icon/Instagram</title>
    <defs>
        <filter id="filter-1">
            <feColorMatrix in="SourceGraphic" type="matrix" values="0 0 0 0 1.000000 0 0 0 0 1.000000 0 0 0 0 1.000000 0 0 0 1.000000 0"></feColorMatrix>
        </filter>
        <polygon id="path-2" points="8.17307692e-06 0 17 0 17 17 8.17307692e-06 17"></polygon>
    </defs>
    <g id="Social-icon/Instagram" stroke="none" stroke-width="1" fill="none" fill-rule="evenodd">
        <g filter="url(#filter-1)" id="Group-6">
            <g>
                <path d="M8.49998365,5.66668029 C6.93524808,5.66668029 5.66662308,6.93530529 5.66662308,8.50004087 C5.66662308,10.0654303 6.93524808,11.3333197 8.49998365,11.3333197 C10.0647192,11.3333197 11.3333442,10.0654303 11.3333442,8.50004087 C11.3333442,6.93530529 10.0647192,5.66668029 8.49998365,5.66668029" id="Fill-1" fill="#000000"></path>
                <g id="Group-5">
                    <mask id="mask-3" fill="white">
                        <use xlink:href="#path-2"></use>
                    </mask>
                    <g id="Clip-4"></g>
                    <path d="M12.8647582,8.5 C12.8647582,10.9111394 10.910412,12.8654856 8.50000817,12.8654856 C6.0895226,12.8654856 4.13525817,10.9104856 4.13525817,8.5 C4.13525817,6.08951442 6.0895226,4.13525 8.50000817,4.13525 C10.910412,4.13525 12.8647582,6.08951442 12.8647582,8.5 M12.0168832,3.963125 C12.0168832,3.4 12.4737582,2.943125 13.0376187,2.943125 C13.600662,2.943125 14.0568832,3.4 14.0568832,3.963125 C14.0568832,4.52625 13.600662,4.983125 13.0376187,4.983125 C12.4737582,4.983125 12.0168832,4.52625 12.0168832,3.963125 M16.9490082,4.995875 C16.8578784,2.97197596 16.0880562,1.53612981 14.696263,0.748163462 C14.6300611,0.710649038 14.562388,0.674605769 14.4932437,0.640033654 C14.355037,0.570889423 14.2112726,0.507629808 14.0618687,0.450336538 C13.9872486,0.421649038 13.9111572,0.394514423 13.8336764,0.368850962 C13.4464361,0.240451923 13.0245418,0.149485577 12.5687293,0.0966875 C12.386388,0.0756009615 12.1986524,0.0605625 12.0055226,0.0517355769 C11.3533928,0.0216586538 11.0202582,0.00809134615 10.0273928,0.00286057692 C9.63884471,0.000817307692 9.1492774,0 8.50000817,0 C7.99499375,0 7.58666683,0.000490384615 7.2474024,0.00163461538 C7.19893606,0.00179807692 7.15185913,0.00196153846 7.1060899,0.00220673077 C6.78595048,0.00351442308 6.53086875,0.00563942308 6.31330144,0.00874519231 C6.25110433,0.0095625 6.19201298,0.0105432692 6.13537356,0.0116057692 C6.0786524,0.0125865385 6.02438317,0.0137307692 5.97191202,0.0149567308 C5.63060433,0.0227211538 5.36424375,0.0343269231 4.99588317,0.051 C1.90899375,0.192639423 0.193383173,1.90538942 0.05174375,4.99513942 C0.0478206731,5.08022115 0.0441427885,5.15982692 0.0407918269,5.23624519 C0.0351524038,5.3635 0.0302485577,5.48176442 0.0259985577,5.60092788 C0.02518125,5.62479327 0.0243639423,5.64865865 0.0235466346,5.6726875 C0.00515721154,6.22486058 8.1730769e-06,6.84078365 8.1730769e-06,8.5 C8.1730769e-06,10.4478077 0.00703701923,10.9583798 0.0339264423,11.6149231 C0.0389120192,11.7366202 0.0446331731,11.8631394 0.0510081731,12.0048606 C0.192647596,15.09175 1.9053976,16.8073606 4.9951476,16.949 C5.4488351,16.9695144 5.74796971,16.9822644 6.22217163,16.9899471 C6.31109471,16.9913365 6.40622933,16.9925625 6.50961875,16.9937067 C6.61300817,16.9947692 6.72473413,16.9956683 6.84700337,16.9964856 C7.25443125,16.9990192 7.7786524,17 8.50000817,17 C8.78851779,17 9.04556106,17 9.27620529,16.9995096 C9.33382548,16.9994279 9.38981106,16.9992644 9.44424375,16.9991827 C9.60754183,16.9988558 9.75678221,16.9983654 9.89400817,16.997875 C10.0312341,16.9972212 10.1565274,16.9964856 10.272013,16.9955865 C10.3490034,16.9950144 10.421662,16.9944423 10.4906428,16.9937067 C11.1456332,16.9868413 11.4665082,16.9734375 12.0048687,16.949 C12.4867534,16.926851 12.9352918,16.8663702 13.3497486,16.7682933 C13.5154986,16.7290625 13.6758543,16.6837837 13.8306524,16.6325385 C14.1402486,16.5300481 14.4278591,16.4036923 14.692912,16.2538798 C15.1568159,15.9916058 15.5518207,15.6573269 15.8758014,15.2531683 C16.0609216,15.0221971 16.2228303,14.7683413 16.3611187,14.4920913 C16.7067582,13.8014663 16.9047101,12.9703462 16.9482726,12.0048606 C16.9901187,11.0981394 17.0000082,10.8084856 17.0000082,8.5 C17.0000082,6.19151442 16.9901187,5.90251442 16.9490082,4.995875" id="Fill-3" fill="#000000" mask="url(#mask-3)"></path>
                </g>
            </g>
        </g>
    </g>
</svg>