<?xml version="1.0" encoding="UTF-8"?>
<svg width="25px" height="25px" viewBox="0 0 25 25" version="1.1" xmlns="http://www.w3.org/2000/svg" xmlns:xlink="http://www.w3.org/1999/xlink">
    <title>Card icon / 2</title>
    <g id="Card-icon-/-2" stroke="none" stroke-width="1" fill="none" fill-rule="evenodd">
        <g id="noun_Mountains_7781" transform="translate(0.376527, 0.376527)" fill="#FFFFFF" fill-rule="nonzero" stroke="#FFFFFF" stroke-width="0.5">
            <path d="M12.1232095,0.169992177 C5.53225704,0.169992177 0.170255731,5.53225704 0.170255731,12.1234731 C0.170255731,18.7144256 5.53252059,24.0772176 12.1234731,24.0772176 C18.7146891,24.0772176 24.076954,18.7144256 24.076954,12.1234731 C24.0766905,5.53225704 18.7144256,0.169992177 12.1232095,0.169992177 Z M12.1232095,1.2078669 C17.9730489,1.2078669 22.7615572,5.83349899 23.0261652,11.6190312 L19.919657,8.51278654 L18.248199,10.1842445 L12.3082243,3.77224501 L6.42728561,10.1028064 L4.81038328,8.48616761 L1.20892111,12.0876298 C1.22842409,6.08519283 6.11655573,1.2078669 12.1232095,1.2078669 Z M17.5136746,10.9185053 L12.3783296,16.0541139 L7.1615464,10.8373307 L12.3071701,5.29848485 L17.5136746,10.9185053 Z M1.29404898,13.4702328 L4.81038328,9.95389852 L11.6443324,16.7881111 L6.79019915,21.6422443 C3.83418014,19.9797472 1.72838558,16.9807689 1.29404898,13.4702328 Z M12.1232095,23.0388157 C10.576149,23.0388157 9.10446474,22.7135904 7.76956493,22.130873 L19.919657,9.98051745 L22.9963836,13.0572441 C22.5204055,18.640367 17.8273036,23.0388157 12.1232095,23.0388157 Z" id="Shape"></path>
        </g>
    </g>
</svg>