<?xml version="1.0" encoding="UTF-8"?>
<svg width="25px" height="25px" viewBox="0 0 25 25" version="1.1" xmlns="http://www.w3.org/2000/svg" xmlns:xlink="http://www.w3.org/1999/xlink">
    <title>Card icon / 3</title>
    <defs>
        <polygon id="path-1" points="0.16917887 0.128865979 12.9123234 0.128865979 12.9123234 10.5929967 0.16917887 10.5929967"></polygon>
    </defs>
    <g id="Card-icon-/-3" stroke="none" stroke-width="1" fill="none" fill-rule="evenodd">
        <g id="Group-8">
            <path d="M8.24747423,20.2319588 L2.08072165,20.2319588 L1.74876289,19.568299 L5.38845361,13.653866 L5.92041237,15.2592784 C5.96448454,15.4798969 6.13484536,15.6943299 6.365,15.8188144 C6.48020619,15.8814433 6.70907216,15.9719072 6.94412371,15.8780928 L7.01190722,15.8579897 C7.23252577,15.8139175 7.44670103,15.6435567 7.5714433,15.4134021 C7.63407216,15.2979381 7.72479381,15.0693299 7.63072165,14.8342784 L7.61319588,14.7786082 L6.72247423,10.9615979 C6.52530928,10.6149485 5.97350515,10.2445876 5.55597938,10.410567 L5.50030928,10.4280928 L1.6343299,11.3301546 C1.36474227,11.3840206 1.21164948,11.5981959 1.14335052,11.7213918 C1.02350515,11.9371134 0.978659794,12.2 1.02350515,12.4242268 C1.06757732,12.6448454 1.23793814,12.8590206 1.46809278,12.9837629 C1.5835567,13.0463918 1.81190722,13.1363402 2.04721649,13.0430412 L2.08458763,13.0304124 L3.94386598,12.4992268 L0.329175258,18.3726804 C-0.110773196,19.143299 -0.110773196,19.9030928 0.335618557,20.6845361 C0.766804124,21.4389175 1.52685567,21.9072165 2.31963918,21.9072165 L8.24747423,21.9072165 C8.80391753,21.9072165 9.14953608,21.5615979 9.14953608,21.0051546 C9.14953608,20.8139175 9.14953608,20.2319588 8.24747423,20.2319588" id="Fill-1" fill="#FFFFFF"></path>
            <g id="Group-5" transform="translate(7.216495, 0.128866)">
                <mask id="mask-2" fill="white">
                    <use xlink:href="#path-1"></use>
                </mask>
                <g id="Clip-4"></g>
                <path d="M0.335180412,6.37824742 C0.191108247,6.61871134 0.139304124,6.8756701 0.185695876,7.10840206 C0.231829897,7.33881443 0.370231959,7.52902062 0.585695876,7.65814433 C1.04523196,7.93443299 1.59497423,7.73804124 1.86971649,7.38675258 L4.93389175,2.19061856 L5.63414948,2.19061856 L9.32564433,8.49731959 L7.5132732,7.97953608 C7.46043814,7.96974227 7.40528351,7.96510309 7.34935567,7.96510309 C7.17203608,7.96510309 6.98518041,8.01278351 6.82435567,8.10195876 C6.70141753,8.17051546 6.4875,8.32360825 6.43569588,8.58082474 C6.39110825,8.80530928 6.43569588,9.06793814 6.55579897,9.28391753 C6.62409794,9.40685567 6.77719072,9.62103093 7.03466495,9.67257732 L10.9127577,10.5772165 C11.1472938,10.6241237 11.4204897,10.5651031 11.6333763,10.4181959 C11.769201,10.3246392 11.9411082,10.1514433 11.9898196,9.85917526 L12.8967784,5.96896907 C12.9787371,5.55762887 12.7305412,4.9764433 12.2954897,4.8893299 C12.0710052,4.84448454 11.8083763,4.8893299 11.5923969,5.00917526 C11.4694588,5.07773196 11.2555412,5.23082474 11.2037371,5.48804124 L10.9045103,7.28494845 L7.27177835,1.22979381 C6.82925258,0.567164948 6.04523196,0.128762887 5.28363402,0.128762887 C4.52203608,0.128762887 3.73775773,0.567164948 3.28569588,1.24525773 L0.335180412,6.37824742 Z" id="Fill-3" fill="#FFFFFF" mask="url(#mask-2)"></path>
            </g>
            <path d="M21.7054124,13.6021649 C21.5752577,13.3854124 21.3853093,13.247268 21.1548969,13.201134 C20.9213918,13.155 20.6652062,13.2068041 20.4309278,13.3470103 C20.2154639,13.4763918 20.0773196,13.6663402 20.0311856,13.8967526 C19.9845361,14.1294845 20.0363402,14.3864433 20.1768041,14.6207216 L23.2971649,19.7756186 L22.8404639,20.2320619 L14.6595361,20.2320619 L15.9639175,18.9276804 C16.1399485,18.7513918 16.2371134,18.5279381 16.2371134,18.2990722 C16.2371134,18.0699485 16.1399485,17.8467526 15.9639175,17.6702062 C15.781701,17.4879897 15.5582474,17.397268 15.3350515,17.397268 C15.1118557,17.397268 14.8886598,17.4879897 14.7064433,17.6702062 L11.8713918,20.5052577 C11.5069588,20.869433 11.5069588,21.3985567 11.8713918,21.762732 L14.7064433,24.5977835 C15.0708763,24.9622165 15.5994845,24.9622165 15.9639175,24.5977835 C16.3280928,24.2336082 16.3280928,23.7044845 15.9639175,23.3403093 L14.6595361,22.0361856 L22.6804124,22.0361856 C23.5332474,22.0361856 24.2007732,21.6248454 24.6641753,20.8132474 C25.1100515,20.0333505 25.1108247,19.2748454 24.6667526,18.4946907 L21.7054124,13.6021649 Z" id="Fill-6" fill="#FFFFFF"></path>
        </g>
    </g>
</svg>